REM DIRINDEX 1\2\4\18,1\2\4\19,1\2\5\20,1\2\5\21,1\2\6\22,1\2\6\23,1\2\7\24,1\2\8\25,1\2\9\26,1\2\10\27,1\2\10\28,1\3\11\29,1\3\11\30,1\3\11\31,1\3\11\32,1\3\12\33,1\3\12\34,1\3\12\35,1\3\12\36,1\3\13\37,1\3\13\38,1\3\13\39,1\3\13\40,1\3\14\41,1\3\14\42,1\3\15\43,1\3\15\44,1\3\16\45,1\3\16\46,1\3\17\47,1\3\17\48,1\3\17\49,1\3\17\50
REM DIRNAME folder01,folder02,folder03,folder04,folder05,folder06,folder07,folder08,folder09,folder10,folder11,folder12,folder13,folder14,folder15,folder16,folder17,folder18,folder19,folder20,folder21,folder22,folder23,folder24,folder25,folder26,folder27,folder28,folder29,folder30,folder31,folder32,folder33,folder34,folder35,folder36,folder37,folder38,folder39,folder40,folder41,folder42,folder43,folder44,folder45,folder46,folder47,folder48,folder49,folder50
TITLE ""
FILE "07.mp3" MP3
  TRACK 01 AUDIO
    TITLE "0:"
    INDEX 01 00:00:00
  TRACK 02 AUDIO
    TITLE "18:cjc135_0953"
    INDEX 01 00:00:15
  TRACK 03 AUDIO
    TITLE "0:"
    INDEX 01 00:01:38
  TRACK 04 AUDIO
    TITLE "19:cjc135_0954"
    INDEX 01 00:01:66
  TRACK 05 AUDIO
    TITLE "0:"
    INDEX 01 00:03:59
  TRACK 06 AUDIO
    TITLE "18:cjc135_0955"
    INDEX 01 00:04:60
  TRACK 07 AUDIO
    TITLE "0:"
    INDEX 01 00:05:71
  TRACK 08 AUDIO
    TITLE "19:cjc135_0956"
    INDEX 01 00:06:20
  TRACK 09 AUDIO
    TITLE "0:"
    INDEX 01 00:09:00
  TRACK 10 AUDIO
    TITLE "18:cjc135_0957"
    INDEX 01 00:10:00
  TRACK 11 AUDIO
    TITLE "0:"
    INDEX 01 00:11:01
  TRACK 12 AUDIO
    TITLE "19:cjc135_0958"
    INDEX 01 00:11:27
  TRACK 13 AUDIO
    TITLE "0:"
    INDEX 01 00:13:02
  TRACK 14 AUDIO
    TITLE "18:cjc135_0959"
    INDEX 01 00:14:02
  TRACK 15 AUDIO
    TITLE "0:"
    INDEX 01 00:15:11
  TRACK 16 AUDIO
    TITLE "19:cjc135_0960"
    INDEX 01 00:15:38
  TRACK 17 AUDIO
    TITLE "0:"
    INDEX 01 00:17:69
  TRACK 18 AUDIO
    TITLE "18:cjc135_0961"
    INDEX 01 00:18:70
  TRACK 19 AUDIO
    TITLE "0:"
    INDEX 01 00:20:04
  TRACK 20 AUDIO
    TITLE "19:cjc135_0962"
    INDEX 01 00:20:28
  TRACK 21 AUDIO
    TITLE "0:"
    INDEX 01 00:22:32
  TRACK 22 AUDIO
    TITLE "18:cjc135_0963"
    INDEX 01 00:23:32
  TRACK 23 AUDIO
    TITLE "0:"
    INDEX 01 00:24:49
  TRACK 24 AUDIO
    TITLE "19:cjc135_0964"
    INDEX 01 00:24:74
  TRACK 25 AUDIO
    TITLE "0:"
    INDEX 01 00:27:08
  TRACK 26 AUDIO
    TITLE "18:cjc135_0965"
    INDEX 01 00:28:08
  TRACK 27 AUDIO
    TITLE "0:"
    INDEX 01 00:29:11
  TRACK 28 AUDIO
    TITLE "19:cjc135_0966"
    INDEX 01 00:29:36
  TRACK 29 AUDIO
    TITLE "0:"
    INDEX 01 00:32:05
  TRACK 30 AUDIO
    TITLE "18:cjc135_0967"
    INDEX 01 00:33:05
  TRACK 31 AUDIO
    TITLE "0:"
    INDEX 01 00:34:12
  TRACK 32 AUDIO
    TITLE "19:cjc135_0968"
    INDEX 01 00:34:34
  TRACK 33 AUDIO
    TITLE "0:"
    INDEX 01 00:37:16
  TRACK 34 AUDIO
    TITLE "18:cjc135_0969"
    INDEX 01 00:38:30
  TRACK 35 AUDIO
    TITLE "0:"
    INDEX 01 00:39:56
  TRACK 36 AUDIO
    TITLE "19:cjc135_0970"
    INDEX 01 00:40:07
  TRACK 37 AUDIO
    TITLE "0:"
    INDEX 01 00:42:70
  TRACK 38 AUDIO
    TITLE "18:cjc135_0971"
    INDEX 01 00:43:70
  TRACK 39 AUDIO
    TITLE "0:"
    INDEX 01 00:45:06
  TRACK 40 AUDIO
    TITLE "19:cjc135_0972"
    INDEX 01 00:45:30
  TRACK 41 AUDIO
    TITLE "0:"
    INDEX 01 00:47:19
  TRACK 42 AUDIO
    TITLE "18:cjc135_0973"
    INDEX 01 00:48:20
  TRACK 43 AUDIO
    TITLE "0:"
    INDEX 01 00:49:16
  TRACK 44 AUDIO
    TITLE "19:cjc135_0974"
    INDEX 01 00:49:43
  TRACK 45 AUDIO
    TITLE "0:"
    INDEX 01 00:51:18
  TRACK 46 AUDIO
    TITLE "18:cjc135_0975"
    INDEX 01 00:52:14
  TRACK 47 AUDIO
    TITLE "0:"
    INDEX 01 00:53:29
  TRACK 48 AUDIO
    TITLE "19:cjc135_0976"
    INDEX 01 00:53:55
  TRACK 49 AUDIO
    TITLE "0:"
    INDEX 01 00:55:51
  TRACK 50 AUDIO
    TITLE "18:cjc135_0977"
    INDEX 01 00:56:57
  TRACK 51 AUDIO
    TITLE "0:"
    INDEX 01 00:57:70
  TRACK 52 AUDIO
    TITLE "19:cjc135_0978"
    INDEX 01 00:58:24
  TRACK 53 AUDIO
    TITLE "0:"
    INDEX 01 01:01:03
  TRACK 54 AUDIO
    TITLE "18:cjc135_0979"
    INDEX 01 01:02:03
  TRACK 55 AUDIO
    TITLE "0:"
    INDEX 01 01:03:10
  TRACK 56 AUDIO
    TITLE "19:cjc135_0980"
    INDEX 01 01:03:35
  TRACK 57 AUDIO
    TITLE "0:"
    INDEX 01 01:05:03
  TRACK 58 AUDIO
    TITLE "18:cjc135_0981"
    INDEX 01 01:06:04
  TRACK 59 AUDIO
    TITLE "0:"
    INDEX 01 01:07:04
  TRACK 60 AUDIO
    TITLE "19:cjc135_0982"
    INDEX 01 01:07:29
  TRACK 61 AUDIO
    TITLE "0:"
    INDEX 01 01:10:08
  TRACK 62 AUDIO
    TITLE "18:cjc135_0983"
    INDEX 01 01:11:09
  TRACK 63 AUDIO
    TITLE "0:"
    INDEX 01 01:12:07
  TRACK 64 AUDIO
    TITLE "19:cjc135_0984"
    INDEX 01 01:12:34
  TRACK 65 AUDIO
    TITLE "0:"
    INDEX 01 01:14:43
  TRACK 66 AUDIO
    TITLE "18:cjc135_0985"
    INDEX 01 01:15:44
  TRACK 67 AUDIO
    TITLE "0:"
    INDEX 01 01:16:54
  TRACK 68 AUDIO
    TITLE "19:cjc135_0986"
    INDEX 01 01:17:08
  TRACK 69 AUDIO
    TITLE "0:"
    INDEX 01 01:19:40
  TRACK 70 AUDIO
    TITLE "18:cjc135_0987"
    INDEX 01 01:20:40
  TRACK 71 AUDIO
    TITLE "0:"
    INDEX 01 01:21:49
  TRACK 72 AUDIO
    TITLE "19:cjc135_0988"
    INDEX 01 01:21:74
  TRACK 73 AUDIO
    TITLE "0:"
    INDEX 01 01:23:52
  TRACK 74 AUDIO
    TITLE "18:cjc135_0989"
    INDEX 01 01:24:55
  TRACK 75 AUDIO
    TITLE "0:"
    INDEX 01 01:25:64
  TRACK 76 AUDIO
    TITLE "19:cjc135_0990"
    INDEX 01 01:26:15
  TRACK 77 AUDIO
    TITLE "0:"
    INDEX 01 01:28:29
  TRACK 78 AUDIO
    TITLE "18:cjc135_0991"
    INDEX 01 01:29:29
  TRACK 79 AUDIO
    TITLE "0:"
    INDEX 01 01:30:26
  TRACK 80 AUDIO
    TITLE "19:cjc135_0992"
    INDEX 01 01:30:48
  TRACK 81 AUDIO
    TITLE "0:"
    INDEX 01 01:32:41
  TRACK 82 AUDIO
    TITLE "18:cjc135_0993"
    INDEX 01 01:33:42
  TRACK 83 AUDIO
    TITLE "0:"
    INDEX 01 01:34:54
  TRACK 84 AUDIO
    TITLE "19:cjc135_0994"
    INDEX 01 01:35:04
  TRACK 85 AUDIO
    TITLE "0:"
    INDEX 01 01:36:52
  TRACK 86 AUDIO
    TITLE "18:cjc135_0995"
    INDEX 01 01:37:52
  TRACK 87 AUDIO
    TITLE "0:"
    INDEX 01 01:38:69
  TRACK 88 AUDIO
    TITLE "19:cjc135_0996"
    INDEX 01 01:39:19
  TRACK 89 AUDIO
    TITLE "0:"
    INDEX 01 01:40:62
  TRACK 90 AUDIO
    TITLE "18:cjc135_0997"
    INDEX 01 01:41:61
  TRACK 91 AUDIO
    TITLE "0:"
    INDEX 01 01:42:73
  TRACK 92 AUDIO
    TITLE "19:cjc135_0998"
    INDEX 01 01:43:25
  TRACK 93 AUDIO
    TITLE "0:"
    INDEX 01 01:46:57
  TRACK 94 AUDIO
    TITLE "18:cjc135_0999"
    INDEX 01 01:47:58
  TRACK 95 AUDIO
    TITLE "0:"
    INDEX 01 01:48:61
  TRACK 96 AUDIO
    TITLE "19:cjc135_1000"
    INDEX 01 01:49:10
  TRACK 97 AUDIO
    TITLE "0:"
    INDEX 01 01:51:01
  TRACK 98 AUDIO
    TITLE "18:cjc135_1001"
    INDEX 01 01:51:72
  TRACK 99 AUDIO
    TITLE "0:"
    INDEX 01 01:53:12
  TRACK 100 AUDIO
    TITLE "19:cjc135_1002"
    INDEX 01 01:53:37
  TRACK 101 AUDIO
    TITLE "0:"
    INDEX 01 01:55:38
  TRACK 102 AUDIO
    TITLE "18:cjc135_1003"
    INDEX 01 01:56:37
  TRACK 103 AUDIO
    TITLE "0:"
    INDEX 01 01:57:57
  TRACK 104 AUDIO
    TITLE "19:cjc135_1004"
    INDEX 01 01:58:07
  TRACK 105 AUDIO
    TITLE "0:"
    INDEX 01 02:00:02
  TRACK 106 AUDIO
    TITLE "18:cjc135_1005"
    INDEX 01 02:01:05
  TRACK 107 AUDIO
    TITLE "0:"
    INDEX 01 02:02:13
  TRACK 108 AUDIO
    TITLE "19:cjc135_1006"
    INDEX 01 02:02:40
  TRACK 109 AUDIO
    TITLE "0:"
    INDEX 01 02:04:31
  TRACK 110 AUDIO
    TITLE "18:cjc135_1007"
    INDEX 01 02:05:31
  TRACK 111 AUDIO
    TITLE "0:"
    INDEX 01 02:06:55
  TRACK 112 AUDIO
    TITLE "19:cjc135_1008"
    INDEX 01 02:07:04
  TRACK 113 AUDIO
    TITLE "0:"
    INDEX 01 02:09:28
  TRACK 114 AUDIO
    TITLE "18:cjc135_1009"
    INDEX 01 02:10:28
  TRACK 115 AUDIO
    TITLE "0:"
    INDEX 01 02:11:39
  TRACK 116 AUDIO
    TITLE "19:cjc135_1010"
    INDEX 01 02:11:66
  TRACK 117 AUDIO
    TITLE "0:"
    INDEX 01 02:14:08
  TRACK 118 AUDIO
    TITLE "18:cjc135_1011"
    INDEX 01 02:15:09
  TRACK 119 AUDIO
    TITLE "0:"
    INDEX 01 02:16:24
  TRACK 120 AUDIO
    TITLE "19:cjc135_1012"
    INDEX 01 02:16:50
  TRACK 121 AUDIO
    TITLE "0:"
    INDEX 01 02:18:21
  TRACK 122 AUDIO
    TITLE "18:cjc135_1013"
    INDEX 01 02:19:23
  TRACK 123 AUDIO
    TITLE "0:"
    INDEX 01 02:20:36
  TRACK 124 AUDIO
    TITLE "19:cjc135_1014"
    INDEX 01 02:20:63
  TRACK 125 AUDIO
    TITLE "0:"
    INDEX 01 02:23:58
  TRACK 126 AUDIO
    TITLE "18:cjc135_1015"
    INDEX 01 02:24:57
  TRACK 127 AUDIO
    TITLE "0:"
    INDEX 01 02:25:55
  TRACK 128 AUDIO
    TITLE "19:cjc135_1016"
    INDEX 01 02:26:07
  TRACK 129 AUDIO
    TITLE "0:"
    INDEX 01 02:28:06
  TRACK 130 AUDIO
    TITLE "18:cjc135_1017"
    INDEX 01 02:29:04
  TRACK 131 AUDIO
    TITLE "0:"
    INDEX 01 02:30:29
  TRACK 132 AUDIO
    TITLE "19:cjc135_1018"
    INDEX 01 02:30:52
  TRACK 133 AUDIO
    TITLE "0:"
    INDEX 01 02:32:43
  TRACK 134 AUDIO
    TITLE "18:cjc135_1019"
    INDEX 01 02:33:39
  TRACK 135 AUDIO
    TITLE "0:"
    INDEX 01 02:34:46
  TRACK 136 AUDIO
    TITLE "19:cjc135_1020"
    INDEX 01 02:34:71
  TRACK 137 AUDIO
    TITLE "0:"
    INDEX 01 02:36:49
  TRACK 138 AUDIO
    TITLE "18:cjc135_1021"
    INDEX 01 02:37:50
  TRACK 139 AUDIO
    TITLE "0:"
    INDEX 01 02:38:63
  TRACK 140 AUDIO
    TITLE "19:cjc135_1022"
    INDEX 01 02:39:12
  TRACK 141 AUDIO
    TITLE "0:"
    INDEX 01 02:40:56
  TRACK 142 AUDIO
    TITLE "18:cjc135_1023"
    INDEX 01 02:41:58
  TRACK 143 AUDIO
    TITLE "0:"
    INDEX 01 02:42:71
  TRACK 144 AUDIO
    TITLE "19:cjc135_1024"
    INDEX 01 02:43:17
  TRACK 145 AUDIO
    TITLE "0:"
    INDEX 01 02:46:08
  TRACK 146 AUDIO
    TITLE "18:cjc135_1025"
    INDEX 01 02:47:09
  TRACK 147 AUDIO
    TITLE "0:"
    INDEX 01 02:48:15
  TRACK 148 AUDIO
    TITLE "19:cjc135_1026"
    INDEX 01 02:48:42
  TRACK 149 AUDIO
    TITLE "0:"
    INDEX 01 02:50:08
  TRACK 150 AUDIO
    TITLE "18:cjc135_1027"
    INDEX 01 02:51:09
  TRACK 151 AUDIO
    TITLE "0:"
    INDEX 01 02:52:28
  TRACK 152 AUDIO
    TITLE "19:cjc135_1028"
    INDEX 01 02:52:52
  TRACK 153 AUDIO
    TITLE "0:"
    INDEX 01 02:54:19
  TRACK 154 AUDIO
    TITLE "18:cjc135_1029"
    INDEX 01 02:55:17
  TRACK 155 AUDIO
    TITLE "0:"
    INDEX 01 02:56:18
  TRACK 156 AUDIO
    TITLE "19:cjc135_1030"
    INDEX 01 02:56:42
  TRACK 157 AUDIO
    TITLE "0:"
    INDEX 01 02:58:21
  TRACK 158 AUDIO
    TITLE "18:cjc135_1031"
    INDEX 01 02:59:22
  TRACK 159 AUDIO
    TITLE "0:"
    INDEX 01 03:00:37
  TRACK 160 AUDIO
    TITLE "19:cjc135_1032"
    INDEX 01 03:00:63
  TRACK 161 AUDIO
    TITLE "0:"
    INDEX 01 03:02:54
  TRACK 162 AUDIO
    TITLE "18:cjc135_1033"
    INDEX 01 03:03:55
  TRACK 163 AUDIO
    TITLE "0:"
    INDEX 01 03:05:17
  TRACK 164 AUDIO
    TITLE "19:cjc135_1034"
    INDEX 01 03:05:43
  TRACK 165 AUDIO
    TITLE "0:"
    INDEX 01 03:08:49
  TRACK 166 AUDIO
    TITLE "18:cjc135_1035"
    INDEX 01 03:09:50
  TRACK 167 AUDIO
    TITLE "0:"
    INDEX 01 03:10:63
  TRACK 168 AUDIO
    TITLE "19:cjc135_1036"
    INDEX 01 03:11:12
  TRACK 169 AUDIO
    TITLE "0:"
    INDEX 01 03:12:72
  TRACK 170 AUDIO
    TITLE "18:cjc135_1037"
    INDEX 01 03:13:71
  TRACK 171 AUDIO
    TITLE "0:"
    INDEX 01 03:15:08
  TRACK 172 AUDIO
    TITLE "19:cjc135_1038"
    INDEX 01 03:15:35
  TRACK 173 AUDIO
    TITLE "0:"
    INDEX 01 03:17:46
  TRACK 174 AUDIO
    TITLE "18:cjc135_1039"
    INDEX 01 03:18:47
  TRACK 175 AUDIO
    TITLE "0:"
    INDEX 01 03:20:03
  TRACK 176 AUDIO
    TITLE "19:cjc135_1040"
    INDEX 01 03:20:26
  TRACK 177 AUDIO
    TITLE "0:"
    INDEX 01 03:22:25
  TRACK 178 AUDIO
    TITLE "18:cjc135_1041"
    INDEX 01 03:23:25
  TRACK 179 AUDIO
    TITLE "0:"
    INDEX 01 03:24:44
  TRACK 180 AUDIO
    TITLE "19:cjc135_1042"
    INDEX 01 03:24:73
  TRACK 181 AUDIO
    TITLE "0:"
    INDEX 01 03:27:19
  TRACK 182 AUDIO
    TITLE "18:cjc135_1043"
    INDEX 01 03:28:20
  TRACK 183 AUDIO
    TITLE "0:"
    INDEX 01 03:29:35
  TRACK 184 AUDIO
    TITLE "19:cjc135_1044"
    INDEX 01 03:29:59
  TRACK 185 AUDIO
    TITLE "0:"
    INDEX 01 03:33:27
  TRACK 186 AUDIO
    TITLE "18:cjc135_1045"
    INDEX 01 03:34:27
  TRACK 187 AUDIO
    TITLE "0:"
    INDEX 01 03:35:46
  TRACK 188 AUDIO
    TITLE "19:cjc135_1046"
    INDEX 01 03:35:69
  TRACK 189 AUDIO
    TITLE "0:"
    INDEX 01 03:37:50
  TRACK 190 AUDIO
    TITLE "18:cjc135_1047"
    INDEX 01 03:38:50
  TRACK 191 AUDIO
    TITLE "0:"
    INDEX 01 03:39:61
  TRACK 192 AUDIO
    TITLE "19:cjc135_1048"
    INDEX 01 03:40:10
  TRACK 193 AUDIO
    TITLE "0:"
    INDEX 01 03:42:18
  TRACK 194 AUDIO
    TITLE "18:cjc135_1049"
    INDEX 01 03:43:20
  TRACK 195 AUDIO
    TITLE "0:"
    INDEX 01 03:44:27
  TRACK 196 AUDIO
    TITLE "19:cjc135_1050"
    INDEX 01 03:44:56
  TRACK 197 AUDIO
    TITLE "0:"
    INDEX 01 03:46:18
  TRACK 198 AUDIO
    TITLE "18:cjc135_1051"
    INDEX 01 03:47:19
  TRACK 199 AUDIO
    TITLE "0:"
    INDEX 01 03:48:19
  TRACK 200 AUDIO
    TITLE "19:cjc135_1052"
    INDEX 01 03:48:44
  TRACK 201 AUDIO
    TITLE "0:"
    INDEX 01 03:50:39
  TRACK 202 AUDIO
    TITLE "18:cjc135_1053"
    INDEX 01 03:51:41
  TRACK 203 AUDIO
    TITLE "0:"
    INDEX 01 03:52:40
  TRACK 204 AUDIO
    TITLE "19:cjc135_1054"
    INDEX 01 03:52:68
  TRACK 205 AUDIO
    TITLE "0:"
    INDEX 01 03:55:03
  TRACK 206 AUDIO
    TITLE "18:cjc135_1055"
    INDEX 01 03:56:03
  TRACK 207 AUDIO
    TITLE "0:"
    INDEX 01 03:57:02
  TRACK 208 AUDIO
    TITLE "19:cjc135_1056"
    INDEX 01 03:57:28
  TRACK 209 AUDIO
    TITLE "0:"
    INDEX 01 03:59:34
  TRACK 210 AUDIO
    TITLE "18:cjc135_1057"
    INDEX 01 04:00:36
  TRACK 211 AUDIO
    TITLE "0:"
    INDEX 01 04:01:37
  TRACK 212 AUDIO
    TITLE "19:cjc135_1058"
    INDEX 01 04:01:63
  TRACK 213 AUDIO
    TITLE "0:"
    INDEX 01 04:03:13
  TRACK 214 AUDIO
    TITLE "18:cjc135_1059"
    INDEX 01 04:04:12
  TRACK 215 AUDIO
    TITLE "0:"
    INDEX 01 04:05:09
  TRACK 216 AUDIO
    TITLE "19:cjc135_1060"
    INDEX 01 04:05:35
  TRACK 217 AUDIO
    TITLE "0:"
    INDEX 01 04:07:16
  TRACK 218 AUDIO
    TITLE "18:cjc135_1061"
    INDEX 01 04:08:14
  TRACK 219 AUDIO
    TITLE "0:"
    INDEX 01 04:09:07
  TRACK 220 AUDIO
    TITLE "19:cjc135_1062"
    INDEX 01 04:09:35
  TRACK 221 AUDIO
    TITLE "0:"
    INDEX 01 04:11:43
  TRACK 222 AUDIO
    TITLE "18:cjc135_1063"
    INDEX 01 04:12:45
  TRACK 223 AUDIO
    TITLE "0:"
    INDEX 01 04:13:50
  TRACK 224 AUDIO
    TITLE "19:cjc135_1064"
    INDEX 01 04:14:01
  TRACK 225 AUDIO
    TITLE "0:"
    INDEX 01 04:16:17
  TRACK 226 AUDIO
    TITLE "18:cjc135_1065"
    INDEX 01 04:17:19
  TRACK 227 AUDIO
    TITLE "0:"
    INDEX 01 04:18:38
  TRACK 228 AUDIO
    TITLE "19:cjc135_1066"
    INDEX 01 04:18:59
  TRACK 229 AUDIO
    TITLE "0:"
    INDEX 01 04:20:70
  TRACK 230 AUDIO
    TITLE "18:cjc135_1067"
    INDEX 01 04:21:69
  TRACK 231 AUDIO
    TITLE "0:"
    INDEX 01 04:23:05
  TRACK 232 AUDIO
    TITLE "19:cjc135_1068"
    INDEX 01 04:23:29
  TRACK 233 AUDIO
    TITLE "0:"
    INDEX 01 04:25:51
  TRACK 234 AUDIO
    TITLE "18:cjc135_1069"
    INDEX 01 04:26:49
  TRACK 235 AUDIO
    TITLE "0:"
    INDEX 01 04:27:66
  TRACK 236 AUDIO
    TITLE "19:cjc135_1070"
    INDEX 01 04:28:16
  TRACK 237 AUDIO
    TITLE "0:"
    INDEX 01 04:30:35
  TRACK 238 AUDIO
    TITLE "18:cjc135_1071"
    INDEX 01 04:31:36
  TRACK 239 AUDIO
    TITLE "0:"
    INDEX 01 04:32:49
  TRACK 240 AUDIO
    TITLE "19:cjc135_1072"
    INDEX 01 04:33:00
  TRACK 241 AUDIO
    TITLE "0:"
    INDEX 01 04:34:48
  TRACK 242 AUDIO
    TITLE "18:cjc135_1073"
    INDEX 01 04:35:48
  TRACK 243 AUDIO
    TITLE "0:"
    INDEX 01 04:36:53
  TRACK 244 AUDIO
    TITLE "19:cjc135_1074"
    INDEX 01 04:37:02
  TRACK 245 AUDIO
    TITLE "0:"
    INDEX 01 04:38:54
  TRACK 246 AUDIO
    TITLE "18:cjc135_1075"
    INDEX 01 04:39:51
  TRACK 247 AUDIO
    TITLE "0:"
    INDEX 01 04:40:71
  TRACK 248 AUDIO
    TITLE "19:cjc135_1076"
    INDEX 01 04:41:19
  TRACK 249 AUDIO
    TITLE "0:"
    INDEX 01 04:43:61
  TRACK 250 AUDIO
    TITLE "18:cjc135_1077"
    INDEX 01 04:44:60
  TRACK 251 AUDIO
    TITLE "0:"
    INDEX 01 04:45:70
  TRACK 252 AUDIO
    TITLE "19:cjc135_1078"
    INDEX 01 04:46:22
  TRACK 253 AUDIO
    TITLE "0:"
    INDEX 01 04:49:15
  TRACK 254 AUDIO
    TITLE "18:cjc135_1079"
    INDEX 01 04:50:12
  TRACK 255 AUDIO
    TITLE "0:"
    INDEX 01 04:51:29
  TRACK 256 AUDIO
    TITLE "19:cjc135_1080"
    INDEX 01 04:51:55
  TRACK 257 AUDIO
    TITLE "0:"
    INDEX 01 04:53:32
  TRACK 258 AUDIO
    TITLE "18:cjc135_1081"
    INDEX 01 04:54:35
  TRACK 259 AUDIO
    TITLE "0:"
    INDEX 01 04:55:49
  TRACK 260 AUDIO
    TITLE "19:cjc135_1082"
    INDEX 01 04:55:74
  TRACK 261 AUDIO
    TITLE "0:"
    INDEX 01 04:57:47
  TRACK 262 AUDIO
    TITLE "18:cjc135_1083"
    INDEX 01 04:58:47
  TRACK 263 AUDIO
    TITLE "0:"
    INDEX 01 04:59:72
  TRACK 264 AUDIO
    TITLE "19:cjc135_1084"
    INDEX 01 05:00:22
  TRACK 265 AUDIO
    TITLE "0:"
    INDEX 01 05:02:29
  TRACK 266 AUDIO
    TITLE "18:cjc135_1085"
    INDEX 01 05:03:30
  TRACK 267 AUDIO
    TITLE "0:"
    INDEX 01 05:04:42
  TRACK 268 AUDIO
    TITLE "19:cjc135_1086"
    INDEX 01 05:04:65
  TRACK 269 AUDIO
    TITLE "0:"
    INDEX 01 05:06:70
  TRACK 270 AUDIO
    TITLE "18:cjc135_1087"
    INDEX 01 05:07:71
  TRACK 271 AUDIO
    TITLE "0:"
    INDEX 01 05:09:09
  TRACK 272 AUDIO
    TITLE "19:cjc135_1088"
    INDEX 01 05:09:33
  TRACK 273 AUDIO
    TITLE "0:"
    INDEX 01 05:11:16
  TRACK 274 AUDIO
    TITLE "18:cjc135_1089"
    INDEX 01 05:12:18
  TRACK 275 AUDIO
    TITLE "0:"
    INDEX 01 05:13:23
  TRACK 276 AUDIO
    TITLE "19:cjc135_1090"
    INDEX 01 05:13:46
  TRACK 277 AUDIO
    TITLE "0:"
    INDEX 01 05:15:65
  TRACK 278 AUDIO
    TITLE "18:cjc135_1091"
    INDEX 01 05:16:64
  TRACK 279 AUDIO
    TITLE "0:"
    INDEX 01 05:17:66
  TRACK 280 AUDIO
    TITLE "19:cjc135_1092"
    INDEX 01 05:18:16
  TRACK 281 AUDIO
    TITLE "0:"
    INDEX 01 05:20:09
  TRACK 282 AUDIO
    TITLE "18:cjc135_1093"
    INDEX 01 05:21:09
  TRACK 283 AUDIO
    TITLE "0:"
    INDEX 01 05:22:12
  TRACK 284 AUDIO
    TITLE "19:cjc135_1094"
    INDEX 01 05:22:40
  TRACK 285 AUDIO
    TITLE "0:"
    INDEX 01 05:24:66
  TRACK 286 AUDIO
    TITLE "18:cjc135_1095"
    INDEX 01 05:25:67
  TRACK 287 AUDIO
    TITLE "0:"
    INDEX 01 05:27:00
  TRACK 288 AUDIO
    TITLE "19:cjc135_1096"
    INDEX 01 05:27:29
  TRACK 289 AUDIO
    TITLE "0:"
    INDEX 01 05:29:00
  TRACK 290 AUDIO
    TITLE "18:cjc135_1097"
    INDEX 01 05:30:00
  TRACK 291 AUDIO
    TITLE "0:"
    INDEX 01 05:31:19
  TRACK 292 AUDIO
    TITLE "19:cjc135_1098"
    INDEX 01 05:31:46
  TRACK 293 AUDIO
    TITLE "0:"
    INDEX 01 05:33:43
  TRACK 294 AUDIO
    TITLE "18:cjc135_1099"
    INDEX 01 05:34:43
  TRACK 295 AUDIO
    TITLE "0:"
    INDEX 01 05:35:48
  TRACK 296 AUDIO
    TITLE "19:cjc135_1100"
    INDEX 01 05:35:72
  TRACK 297 AUDIO
    TITLE "0:"
    INDEX 01 05:37:29
  TRACK 298 AUDIO
    TITLE "18:cjc135_1101"
    INDEX 01 05:38:29
  TRACK 299 AUDIO
    TITLE "0:"
    INDEX 01 05:39:22
  TRACK 300 AUDIO
    TITLE "19:cjc135_1102"
    INDEX 01 05:39:48
  TRACK 301 AUDIO
    TITLE "0:"
    INDEX 01 05:41:33
  TRACK 302 AUDIO
    TITLE "18:cjc135_1103"
    INDEX 01 05:42:32
  TRACK 303 AUDIO
    TITLE "0:"
    INDEX 01 05:43:34
  TRACK 304 AUDIO
    TITLE "19:cjc135_1104"
    INDEX 01 05:43:59
  TRACK 305 AUDIO
    TITLE "0:"
    INDEX 01 05:45:70
  TRACK 306 AUDIO
    TITLE "18:cjc135_1105"
    INDEX 01 05:46:69
  TRACK 307 AUDIO
    TITLE "0:"
    INDEX 01 05:48:08
  TRACK 308 AUDIO
    TITLE "19:cjc135_1106"
    INDEX 01 05:48:33
  TRACK 309 AUDIO
    TITLE "0:"
    INDEX 01 05:49:68
  TRACK 310 AUDIO
    TITLE "18:cjc135_1107"
    INDEX 01 05:50:69
  TRACK 311 AUDIO
    TITLE "0:"
    INDEX 01 05:52:09
  TRACK 312 AUDIO
    TITLE "19:cjc135_1108"
    INDEX 01 05:52:33
  TRACK 313 AUDIO
    TITLE "0:"
    INDEX 01 05:54:38
  TRACK 314 AUDIO
    TITLE "18:cjc135_1109"
    INDEX 01 05:55:39
  TRACK 315 AUDIO
    TITLE "0:"
    INDEX 01 05:57:05
  TRACK 316 AUDIO
    TITLE "19:cjc135_1110"
    INDEX 01 05:57:32
  TRACK 317 AUDIO
    TITLE "0:"
    INDEX 01 05:59:70
  TRACK 318 AUDIO
    TITLE "18:cjc135_1111"
    INDEX 01 06:00:70
  TRACK 319 AUDIO
    TITLE "0:"
    INDEX 01 06:01:71
  TRACK 320 AUDIO
    TITLE "19:cjc135_1112"
    INDEX 01 06:02:21
  TRACK 321 AUDIO
    TITLE "0:"
    INDEX 01 06:03:60
  TRACK 322 AUDIO
    TITLE "18:cjc135_1113"
    INDEX 01 06:04:60
  TRACK 323 AUDIO
    TITLE "0:"
    INDEX 01 06:05:69
  TRACK 324 AUDIO
    TITLE "19:cjc135_1114"
    INDEX 01 06:06:19
  TRACK 325 AUDIO
    TITLE "0:"
    INDEX 01 06:08:02
  TRACK 326 AUDIO
    TITLE "18:cjc135_1115"
    INDEX 01 06:09:00
  TRACK 327 AUDIO
    TITLE "0:"
    INDEX 01 06:09:72
  TRACK 328 AUDIO
    TITLE "19:cjc135_1116"
    INDEX 01 06:10:23
  TRACK 329 AUDIO
    TITLE "0:"
    INDEX 01 06:12:22
  TRACK 330 AUDIO
    TITLE "18:cjc135_1117"
    INDEX 01 06:13:23
  TRACK 331 AUDIO
    TITLE "0:"
    INDEX 01 06:14:56
  TRACK 332 AUDIO
    TITLE "19:cjc135_1118"
    INDEX 01 06:15:10
  TRACK 333 AUDIO
    TITLE "0:"
    INDEX 01 06:17:05
  TRACK 334 AUDIO
    TITLE "18:cjc135_1119"
    INDEX 01 06:18:07
  TRACK 335 AUDIO
    TITLE "0:"
    INDEX 01 06:19:18
  TRACK 336 AUDIO
    TITLE "19:cjc135_1120"
    INDEX 01 06:19:47
  TRACK 337 AUDIO
    TITLE "0:"
    INDEX 01 06:21:27
  TRACK 338 AUDIO
    TITLE "18:cjc135_1121"
    INDEX 01 06:22:24
  TRACK 339 AUDIO
    TITLE "0:"
    INDEX 01 06:23:29
  TRACK 340 AUDIO
    TITLE "19:cjc135_1122"
    INDEX 01 06:23:55
  TRACK 341 AUDIO
    TITLE "0:"
    INDEX 01 06:25:32
  TRACK 342 AUDIO
    TITLE "18:cjc135_1123"
    INDEX 01 06:26:30
  TRACK 343 AUDIO
    TITLE "0:"
    INDEX 01 06:27:41
  TRACK 344 AUDIO
    TITLE "19:cjc135_1124"
    INDEX 01 06:27:68
  TRACK 345 AUDIO
    TITLE "0:"
    INDEX 01 06:29:38
  TRACK 346 AUDIO
    TITLE "18:cjc135_1125"
    INDEX 01 06:30:37
  TRACK 347 AUDIO
    TITLE "0:"
    INDEX 01 06:31:62
  TRACK 348 AUDIO
    TITLE "19:cjc135_1126"
    INDEX 01 06:32:13
  TRACK 349 AUDIO
    TITLE "0:"
    INDEX 01 06:35:01
  TRACK 350 AUDIO
    TITLE "18:cjc135_1127"
    INDEX 01 06:35:74
  TRACK 351 AUDIO
    TITLE "0:"
    INDEX 01 06:37:02
  TRACK 352 AUDIO
    TITLE "19:cjc135_1128"
    INDEX 01 06:37:28
  TRACK 353 AUDIO
    TITLE "0:"
    INDEX 01 06:39:32
  TRACK 354 AUDIO
    TITLE "18:cjc135_1129"
    INDEX 01 06:40:32
  TRACK 355 AUDIO
    TITLE "0:"
    INDEX 01 06:41:33
  TRACK 356 AUDIO
    TITLE "19:cjc135_1130"
    INDEX 01 06:41:57
  TRACK 357 AUDIO
    TITLE "0:"
    INDEX 01 06:43:24
  TRACK 358 AUDIO
    TITLE "18:cjc135_1131"
    INDEX 01 06:44:24
  TRACK 359 AUDIO
    TITLE "0:"
    INDEX 01 06:45:35
  TRACK 360 AUDIO
    TITLE "19:cjc135_1132"
    INDEX 01 06:45:60
  TRACK 361 AUDIO
    TITLE "0:"
    INDEX 01 06:47:44
  TRACK 362 AUDIO
    TITLE "18:cjc135_1133"
    INDEX 01 06:48:41
  TRACK 363 AUDIO
    TITLE "0:"
    INDEX 01 06:49:68
  TRACK 364 AUDIO
    TITLE "19:cjc135_1134"
    INDEX 01 06:50:17
  TRACK 365 AUDIO
    TITLE "0:"
    INDEX 01 06:52:68
  TRACK 366 AUDIO
    TITLE "18:cjc135_1135"
    INDEX 01 06:53:68
  TRACK 367 AUDIO
    TITLE "0:"
    INDEX 01 06:55:12
  TRACK 368 AUDIO
    TITLE "19:cjc135_1136"
    INDEX 01 06:55:37
  TRACK 369 AUDIO
    TITLE "0:"
    INDEX 01 06:57:21
  TRACK 370 AUDIO
    TITLE "18:cjc135_1137"
    INDEX 01 06:58:20
  TRACK 371 AUDIO
    TITLE "0:"
    INDEX 01 06:59:19
  TRACK 372 AUDIO
    TITLE "19:cjc135_1138"
    INDEX 01 06:59:45
  TRACK 373 AUDIO
    TITLE "0:"
    INDEX 01 07:01:28
  TRACK 374 AUDIO
    TITLE "18:cjc135_1139"
    INDEX 01 07:02:26
  TRACK 375 AUDIO
    TITLE "0:"
    INDEX 01 07:03:29
  TRACK 376 AUDIO
    TITLE "19:cjc135_1140"
    INDEX 01 07:03:62
  TRACK 377 AUDIO
    TITLE "0:"
    INDEX 01 07:05:22
  TRACK 378 AUDIO
    TITLE "18:cjc135_1141"
    INDEX 01 07:06:21
  TRACK 379 AUDIO
    TITLE "0:"
    INDEX 01 07:07:21
  TRACK 380 AUDIO
    TITLE "19:cjc135_1142"
    INDEX 01 07:07:50
  TRACK 381 AUDIO
    TITLE "0:"
    INDEX 01 07:10:00
  TRACK 382 AUDIO
    TITLE "18:cjc135_1143"
    INDEX 01 07:11:03
  TRACK 383 AUDIO
    TITLE "0:"
    INDEX 01 07:12:14
  TRACK 384 AUDIO
    TITLE "19:cjc135_1144"
    INDEX 01 07:12:38
  TRACK 385 AUDIO
    TITLE "0:"
    INDEX 01 07:14:33
  TRACK 386 AUDIO
    TITLE "18:cjc135_1145"
    INDEX 01 07:15:32
  TRACK 387 AUDIO
    TITLE "0:"
    INDEX 01 07:16:43
  TRACK 388 AUDIO
    TITLE "19:cjc135_1146"
    INDEX 01 07:16:69
  TRACK 389 AUDIO
    TITLE "0:"
    INDEX 01 07:19:16
  TRACK 390 AUDIO
    TITLE "18:cjc135_1147"
    INDEX 01 07:20:14
  TRACK 391 AUDIO
    TITLE "0:"
    INDEX 01 07:21:27
  TRACK 392 AUDIO
    TITLE "19:cjc135_1148"
    INDEX 01 07:21:52
  TRACK 393 AUDIO
    TITLE "0:"
    INDEX 01 07:23:36
  TRACK 394 AUDIO
    TITLE "18:cjc135_1149"
    INDEX 01 07:24:35
  TRACK 395 AUDIO
    TITLE "0:"
    INDEX 01 07:25:44
  TRACK 396 AUDIO
    TITLE "19:cjc135_1150"
    INDEX 01 07:25:70
  TRACK 397 AUDIO
    TITLE "0:"
    INDEX 01 07:28:13
  TRACK 398 AUDIO
    TITLE "18:cjc135_1151"
    INDEX 01 07:29:13
  TRACK 399 AUDIO
    TITLE "0:"
    INDEX 01 07:30:24
  TRACK 400 AUDIO
    TITLE "19:cjc135_1152"
    INDEX 01 07:30:51
  TRACK 401 AUDIO
    TITLE "0:"
    INDEX 01 07:32:44
